<?xml version="1.0" encoding="UTF-8" standalone="no"?>
<svg
   id="svg2"
   viewBox="0 0 679.55 729.15"
   version="1.0"
   sodipodi:docname="rabbit.svg"
   inkscape:version="1.2 (dc2aedaf03, 2022-05-15)"
   xmlns:inkscape="http://www.inkscape.org/namespaces/inkscape"
   xmlns:sodipodi="http://sodipodi.sourceforge.net/DTD/sodipodi-0.dtd"
   xmlns="http://www.w3.org/2000/svg"
   xmlns:svg="http://www.w3.org/2000/svg"
   xmlns:rdf="http://www.w3.org/1999/02/22-rdf-syntax-ns#"
   xmlns:cc="http://creativecommons.org/ns#"
   xmlns:dc="http://purl.org/dc/elements/1.1/">
  <defs
     id="defs16" />
  <sodipodi:namedview
     id="namedview14"
     pagecolor="#ffffff"
     bordercolor="#000000"
     borderopacity="0.25"
     inkscape:showpageshadow="2"
     inkscape:pageopacity="0.0"
     inkscape:pagecheckerboard="true"
     inkscape:deskcolor="#d1d1d1"
     showgrid="false"
     inkscape:zoom="0.97170812"
     inkscape:cx="214.57061"
     inkscape:cy="425.02475"
     inkscape:window-width="2560"
     inkscape:window-height="1369"
     inkscape:window-x="1912"
     inkscape:window-y="-8"
     inkscape:window-maximized="1"
     inkscape:current-layer="layer1" />
  <g
     id="layer1"
     transform="translate(-27.667 -119.33)">
    <path
       style="color:#000000;display:inline;fill:#000000;stroke-linecap:round;stroke-linejoin:round;-inkscape-stroke:none"
       d="m 454.06445,565.54687 c -37.71902,0 -69.11523,28.38623 -69.11523,64.0625 0,35.67628 31.39621,64.06446 69.11523,64.06446 37.71903,0 69.11524,-28.38818 69.11524,-64.06446 0,-35.67627 -31.39621,-64.0625 -69.11524,-64.0625 z m 0,16 c 29.78668,0 53.11524,21.81231 53.11524,48.0625 0,26.2502 -23.32856,48.06446 -53.11524,48.06446 -29.78667,0 -53.11523,-21.81426 -53.11523,-48.06446 0,-26.25019 23.32856,-48.0625 53.11523,-48.0625 z"
       id="path163"
       transform="matrix(1.2217,0,0,1.271,67.868802,-33.57004)" />
    <path
       style="display:inline;fill:#ffffff;stroke-width:1.02912"
       d="m 591.93705,673.43614 c -0.35456,-19.17845 -1.35805,-44.82659 -2.22996,-56.99589 -0.87191,-12.16929 -1.69707,-23.74684 -1.83368,-25.72789 l -0.24839,-3.6019 9.94793,0.17727 c 38.4015,0.68434 67.85965,35.55091 60.45377,71.55289 -0.617,2.99943 -2.95488,9.29298 -5.19529,13.98566 -9.13412,19.13204 -29.97065,32.92024 -52.6451,34.83692 l -7.60462,0.64283 z"
       id="path191"
       transform="translate(27.667,119.33)" />
    <path
       style="color:#000000;display:inline;fill:#000000;fill-rule:evenodd;stroke-linecap:round;stroke-linejoin:round;-inkscape-stroke:none"
       d="m 191.60547,126.08203 c -6.21443,-0.29039 -12.41099,0.356 -18.3711,2.11914 -15.89362,4.70171 -29.28843,18.30432 -33.75976,40.02539 a 8.0008,8.0008 0 0 0 -0.008,0.0391 L 97.796875,375.875 a 8.0008,8.0008 0 0 0 13.976565,6.71094 l 134.5,-160.61914 a 8.0008,8.0008 0 0 0 0.0508,-0.0625 c 13.81779,-16.8407 15.85287,-35.90006 9.79687,-51.57032 -6.05599,-15.67025 -19.12602,-28.09479 -34.27734,-35.84179 -9.46957,-4.84188 -19.8809,-7.92618 -30.23828,-8.41016 z m -5.2832,16.05859 c 8.99114,-0.44715 19.08264,1.9173 28.23632,6.59766 12.20491,6.24048 22.41062,16.42294 26.63868,27.36328 4.22634,10.93592 3.55417,22.48602 -7.23047,35.63867 -0.004,0.005 -0.007,0.0103 -0.0117,0.0156 L 119.66211,348.24414 155.14648,171.45312 c 3.54867,-17.23888 11.91905,-24.7425 22.62696,-27.91015 2.67697,-0.79191 5.55178,-1.25329 8.54883,-1.40235 z"
       id="path155"
       transform="matrix(1.2217,0,0,1.271,57.996,-34.854)" />
    <path
       style="color:#000000;display:inline;fill:#000000;fill-rule:evenodd;stroke-linecap:round;stroke-linejoin:round;-inkscape-stroke:none"
       d="m 42.599609,121.14648 c -6.312002,0.20595 -12.664458,1.23627 -18.810547,2.95313 -16.3895697,4.57829 -31.6709622,14.15425 -40.722656,28.30664 -9.051693,14.15239 -10.847184,33.2345 -0.654297,52.48633 a 8.0008,8.0008 0 0 0 0.03711,0.0703 L 82.314453,389.1328 a 8.0008,8.0008 0 0 0 15.033203,-3.79492 l 0.455078,-211.75 a 8.0008,8.0008 0 0 0 0,-0.0391 c -0.06133,-22.1779 -10.484101,-38.17541 -25.125,-45.94531 -9.150561,-4.8562 -19.55812,-6.80028 -30.078125,-6.45704 z m 5.28711,16.13086 c 6.387585,0.36347 12.359055,1.8416 17.291015,4.45899 9.863534,5.23456 16.575806,14.25281 16.625,31.85351 2e-6,6.9e-4 -2e-6,10e-4 0,0.002 l -0.386718,180.31445 -84.8632816,-156.5 c -7.9645944,-15.04314 -6.3271973,-26.4985 -0.00781,-36.37891 6.3193848,-9.8804 18.3465536,-17.83158 31.5488286,-21.51953 6.601138,-1.84397 13.405383,-2.59394 19.792969,-2.23047 z"
       id="path147"
       transform="matrix(1.2217,0,0,1.271,57.996,-34.854)" />
    <path
       style="color:#000000;display:inline;fill:#000000;fill-rule:evenodd;stroke-linejoin:round;-inkscape-stroke:none"
       d="m 122.92773,321.00977 a 8.50085,8.50085 0 0 0 -0.2207,0.002 c -97.015956,1.74948 -144.864844,65.90472 -142.695311,128.8789 2.096652,60.85871 50.594697,120.14898 135.289061,121.37891 -0.11923,48.10889 -0.9414,61.13678 -0.9414,115.38086 a 8.50085,8.50085 0 0 0 8.50585,8.5 c 200.05452,-0.13 128.38438,-0.25086 328.43946,-0.38086 a 8.50085,8.50085 0 0 0 8.49609,-8.44726 C 460.79217,527.85685 432.85672,436.16845 374.96094,384.13672 317.06516,332.10498 232.05417,321.88386 122.92773,321.00977 Z m 0,17.00195 c 108.03197,0.8741 188.18368,11.59942 240.66993,58.76953 51.53785,46.31778 79.07972,130.02 79.1582,280.99805 -176.59405,0.12275 -134.80476,0.23858 -311.32617,0.36132 0.12055,-47.99153 0.93945,-61.07889 0.93945,-115.27148 A 8.50085,8.50085 0 0 0 123.58789,554.375 C 41.086024,557.10691 -1.1275837,503.59984 -2.9980469,449.30664 -4.867892,395.03138 33.127817,339.6672 122.92773,338.01172 Z"
       id="path139"
       transform="matrix(1.2217,0,0,1.271,57.996,-34.854)" />
    <path
       style="display:inline;fill:#ffffff;stroke-width:0.727695"
       d="m 191.28361,687.4895 c 0.2498,-10.90632 0.66363,-44.08001 0.91963,-73.71931 0.45925,-53.17164 0.44568,-53.93433 -1.0186,-57.24457 -2.50949,-5.67313 -3.39926,-5.95535 -20.50747,-6.50469 -21.67359,-0.69594 -35.69741,-3.03976 -52.42679,-8.76219 C 72.027217,525.44771 40.049655,488.92537 29.815601,440.25525 27.203147,427.8312 26.503279,405.48396 28.334262,392.9551 c 6.65637,-45.54752 32.698795,-80.88938 73.925858,-100.32388 18.65214,-8.79264 38.84489,-13.86423 64.38195,-16.17008 15.2716,-1.37895 64.10516,-0.0935 100.78571,2.65293 126.05955,9.43871 198.17897,43.87679 243.03895,116.05466 32.51642,52.3176 51.30677,126.42249 57.83843,228.10172 1.29938,20.22764 2.56282,55.35065 2.56771,71.38116 l 0.004,11.71021 -13.21516,0.47868 c -7.2684,0.26328 -92.77897,0.47868 -190.02356,0.47868 H 190.82943 Z"
       id="path349"
       transform="translate(27.667,119.33)" />
    <path
       id="path2052"
       d="m 140.41,485.67 a 60.105,21.213353 0 1 1 -120.21,0 60.105,21.213353 0 1 1 120.21,0 z"
       fill="#ffcccc"
       transform="matrix(0.87264809,0,0,1.2407375,67.516219,-19.5143)"
       style="display:inline" />
    <path
       id="path2812"
       d="m 45.457,398.29 a 21.213,21.718 0 1 1 -42.426,0 21.213,21.718 0 1 1 42.426,0 z"
       transform="matrix(1.2217,0,0,1.271,57.996,-34.854)"
       style="display:inline" />
    <path
       id="path3572"
       d="m 45.457,398.29 a 21.213,21.718 0 1 1 -42.426,0 21.213,21.718 0 1 1 42.426,0 z"
       transform="matrix(1.2217,0,0,1.271,160.42699,-25.22478)"
       style="display:inline" />
    <path
       style="fill:#ffffff;stroke-width:1.02912"
       d="M 69.263127,178.07112 C 44.624371,130.79022 23.596197,89.558787 22.533851,86.445712 21.241409,82.65837 20.599004,77.873599 20.592312,71.98472 c -0.0092,-8.080641 0.300812,-9.42974 3.788053,-16.485693 4.043811,-8.182096 12.028958,-17.024906 20.394147,-22.584626 11.74682,-7.807239 30.927917,-13.063789 43.722967,-11.982211 20.774661,1.756102 34.105731,11.596373 39.260421,28.979917 2.08097,7.017766 2.09267,7.976045 1.64628,134.814143 l -0.2644,75.12544 -7.53946,2.09235 -7.53946,2.09235 z"
       id="path352"
       transform="translate(27.667,119.33)" />
    <path
       style="fill:#ffffff;stroke-width:1.02912"
       d="m 184.09773,251.36149 c 0.29661,-0.99052 8.68564,-44.17479 18.6423,-95.96503 9.95666,-51.79025 18.83217,-96.479591 19.72336,-99.309659 4.057,-12.883407 12.06281,-22.161016 22.77318,-26.39092 8.85452,-3.496963 23.54513,-3.268325 34.68288,0.53979 29.88078,10.216561 51.13193,37.824962 46.90626,60.938223 -0.6111,3.342643 -2.47634,8.856146 -4.14495,12.252226 -1.96686,4.0031 -23.35325,31.41946 -60.80994,77.95551 l -57.77609,71.78081 h -10.26815 c -9.29855,0 -10.21722,-0.17006 -9.72885,-1.80095 z"
       id="path354"
       transform="translate(27.667,119.33)" />
  </g>
  <metadata
     id="metadata11">
    <rdf:RDF>
      <cc:Work>
        <dc:format>image/svg+xml</dc:format>
        <dc:type
           rdf:resource="http://purl.org/dc/dcmitype/StillImage" />
        <cc:license
           rdf:resource="http://creativecommons.org/publicdomain/zero/1.0/" />
        <dc:publisher>
          <cc:Agent
             rdf:about="http://openclipart.org/">
            <dc:title>Openclipart</dc:title>
          </cc:Agent>
        </dc:publisher>
        <dc:date>2007-01-01T04:28:02</dc:date>
        <dc:description>animal, animal, bunny, bunny, cartoon, cartoon, clip art, clipart, icon, icon, image, media, pet, pet, png, public domain, rabbit, rabbit, svg, white, white, </dc:description>
        <dc:source>http://openclipart.org/detail/2690/rabbit-by-machovka</dc:source>
        <dc:creator>
          <cc:Agent>
            <dc:title>Machovka</dc:title>
          </cc:Agent>
        </dc:creator>
        <dc:subject>
          <rdf:Bag>
            <rdf:li>animal</rdf:li>
            <rdf:li>bunny</rdf:li>
            <rdf:li>cartoon</rdf:li>
            <rdf:li>clip art</rdf:li>
            <rdf:li>clipart</rdf:li>
            <rdf:li>icon</rdf:li>
            <rdf:li>image</rdf:li>
            <rdf:li>media</rdf:li>
            <rdf:li>pet</rdf:li>
            <rdf:li>png</rdf:li>
            <rdf:li>public domain</rdf:li>
            <rdf:li>rabbit</rdf:li>
            <rdf:li>svg</rdf:li>
            <rdf:li>white</rdf:li>
          </rdf:Bag>
        </dc:subject>
      </cc:Work>
      <cc:License
         rdf:about="http://creativecommons.org/publicdomain/zero/1.0/">
        <cc:permits
           rdf:resource="http://creativecommons.org/ns#Reproduction" />
        <cc:permits
           rdf:resource="http://creativecommons.org/ns#Distribution" />
        <cc:permits
           rdf:resource="http://creativecommons.org/ns#DerivativeWorks" />
      </cc:License>
    </rdf:RDF>
  </metadata>
</svg>
